<?xml version="1.0" standalone="no"?>
<!DOCTYPE svg PUBLIC "-//W3C//DTD SVG 20010904//EN"
 "http://www.w3.org/TR/2001/REC-SVG-20010904/DTD/svg10.dtd">
<svg version="1.0" xmlns="http://www.w3.org/2000/svg"
 width="1200.000000pt" height="997.000000pt" viewBox="0 0 1200.000000 997.000000"
 preserveAspectRatio="xMidYMid meet">
<metadata>
Created by potrace 1.15, written by Peter Selinger 2001-2017
</metadata>
<g transform="translate(0.000000,997.000000) scale(0.100000,-0.100000)"
fill="#000000" stroke="none">
<path d="M6417 8968 c-66 -18 -94 -60 -216 -325 -63 -136 -155 -331 -204 -433
-49 -102 -115 -243 -147 -315 -62 -140 -212 -462 -360 -775 -51 -107 -116
-247 -145 -310 -29 -63 -117 -250 -195 -415 -78 -165 -171 -363 -206 -440 -80
-175 -114 -225 -228 -332 -292 -275 -599 -453 -938 -542 -93 -25 -271 -61
-300 -61 -5 0 -8 108 -8 240 l0 240 -41 45 c-75 82 42 76 -1474 73 l-1350 -3
-42 -23 c-24 -12 -50 -34 -59 -48 -45 -67 -44 -8 -44 -2506 0 -2625 -5 -2430
65 -2494 19 -17 52 -36 73 -42 56 -17 2673 -15 2751 1 52 11 57 15 88 67 l33
55 0 207 0 206 508 7 c279 4 588 8 687 8 l180 2 136 -105 c284 -220 661 -506
702 -532 23 -15 67 -32 98 -38 37 -7 558 -9 1550 -8 l1494 3 55 27 c30 15 93
62 140 105 47 43 245 220 440 394 388 346 414 371 429 412 8 20 11 660 11
2089 0 2030 0 2062 -20 2102 -23 48 -58 71 -355 234 -110 60 -229 127 -265
148 -36 22 -78 45 -93 52 -21 9 -208 12 -773 12 l-745 0 3 693 3 692 63 190
c35 104 79 250 98 323 l34 133 0 415 c0 452 -1 456 -58 518 -15 16 -45 37 -67
47 -38 17 -76 19 -655 18 -380 -1 -630 -5 -653 -11z m954 -364 l74 -7 3 -308
c3 -335 -3 -392 -62 -542 -29 -73 -99 -305 -121 -397 -23 -100 -22 -1499 1
-1602 30 -133 35 -139 139 -163 17 -4 368 -7 780 -6 718 2 753 1 827 -18 87
-22 131 -43 222 -104 35 -24 105 -65 156 -92 54 -29 95 -57 100 -69 4 -12 10
-863 13 -1891 4 -1549 3 -1877 -8 -1910 -15 -43 -181 -211 -366 -368 -53 -45
-160 -141 -238 -213 l-142 -131 -121 -6 c-67 -4 -720 -7 -1452 -7 l-1330 0
-36 34 c-19 19 -87 74 -151 123 -64 48 -152 116 -195 151 -264 209 -434 337
-470 353 -84 38 -269 44 -564 20 -63 -6 -306 -11 -540 -13 l-425 -3 -3 1563
c-2 1440 -1 1567 15 1599 19 40 11 37 128 52 138 18 334 60 395 86 30 12 82
34 115 48 33 14 98 37 145 51 128 38 434 231 583 369 314 290 353 334 401 464
19 48 59 133 90 188 31 55 66 129 77 165 12 36 54 128 94 205 39 77 85 181
102 230 30 86 156 353 243 515 49 92 148 303 200 425 70 165 143 320 166 351
13 17 26 44 29 60 4 16 35 88 70 159 35 72 86 177 114 235 65 134 133 268 177
348 l35 62 328 0 c180 0 361 -3 402 -6z m-4303 -3389 c10 -10 15 -479 7 -602
l-7 -103 -1103 0 -1103 0 -7 177 c-4 97 -5 215 -2 262 4 47 7 128 7 178 l0 93
213 3 c356 6 1987 0 1995 -8z"/>
</g>
</svg>
