<?xml version="1.0" encoding="UTF-8" standalone="no"?>
<!--?xml version="1.0" encoding="UTF-8" standalone="no"?-->

<svg
   xmlns:dc="http://purl.org/dc/elements/1.1/"
   xmlns:cc="http://creativecommons.org/ns#"
   xmlns:rdf="http://www.w3.org/1999/02/22-rdf-syntax-ns#"
   xmlns:svg="http://www.w3.org/2000/svg"
   xmlns="http://www.w3.org/2000/svg"
   xmlns:sodipodi="http://sodipodi.sourceforge.net/DTD/sodipodi-0.dtd"
   xmlns:inkscape="http://www.inkscape.org/namespaces/inkscape"
   viewBox="0 0 17 16"
   version="1.1"
   class="si-glyph si-glyph-bell"
   id="svg3817"
   sodipodi:docname="si-glyph-bellw.svg"
   inkscape:version="0.92.3 (2405546, 2018-03-11)">
  <metadata
     id="metadata3821">
    <rdf:RDF>
      <cc:Work
         rdf:about="">
        <dc:format>image/svg+xml</dc:format>
        <dc:type
           rdf:resource="http://purl.org/dc/dcmitype/StillImage" />
        <dc:title>1080</dc:title>
      </cc:Work>
    </rdf:RDF>
  </metadata>
  <sodipodi:namedview
     pagecolor="#ffffff"
     bordercolor="#666666"
     borderopacity="1"
     objecttolerance="10"
     gridtolerance="10"
     guidetolerance="10"
     inkscape:pageopacity="0"
     inkscape:pageshadow="2"
     inkscape:window-width="1366"
     inkscape:window-height="768"
     id="namedview3819"
     showgrid="false"
     inkscape:zoom="34.9375"
     inkscape:cx="8.5"
     inkscape:cy="8"
     inkscape:window-x="0"
     inkscape:window-y="0"
     inkscape:window-maximized="1"
     inkscape:current-layer="svg3817" />
  <!-- Generator: Sketch 3.0.3 (7891) - http://www.bohemiancoding.com/sketch -->
  <title
     id="title3803">1080</title>
  <defs
     id="defs3805" />
  <g
     stroke="none"
     stroke-width="1"
     fill="none"
     fill-rule="evenodd"
     id="g3815"
     style="fill:#000000">
    <g
       transform="translate(2.000000, 0.000000)"
       fill="#434343"
       id="g3813"
       style="fill:#000000">
      <path
         d="M8.141,1.318 C8.141,0.607 7.582,0.032 6.893,0.032 C6.204,0.032 5.646,0.607 5.646,1.318 C5.646,1.398 5.655,1.478 5.668,1.555 C3.002,2.594 1,4.772 1,10 L13,10 C13.001,4.771 10.784,2.595 8.117,1.555 C8.132,1.478 8.141,1.398 8.141,1.318 Z"
         class="si-glyph-fill"
         id="path3807"
         style="fill:#000000" />
      <path
         d="M14,13 L0,13 L0.906,11 L12.812,11 L14,13 Z"
         class="si-glyph-fill"
         id="path3809"
         style="fill:#000000" />
      <path
         d="M6.961,16 C8.045,16 8.922,15.123 8.922,14.043 L5,14.043 C5,15.123 5.878,16 6.961,16 L6.961,16 Z"
         class="si-glyph-fill"
         id="path3811"
         style="fill:#000000" />
    </g>
  </g>
</svg>
